# xmcd CD database file
#
# Track frame offsets:
#	150
#	1543
#	50388
#	64948
#	85520
#	100710
#	136543
#	148260
#	165693
#	181828
#	200455
#	254993
#	268567
#	290797
#	317097
#	331636
#
# Disc length: 4683 seconds
#
# Revision: 0
# Processed by: cddbd v1.5.1PL0 Copyright (c) Steve Scherf et al.
# Submitted via: CDex 1.51
#
DISCID=dc124910
DTITLE=Lee Morgan - Those Dizzy Days
DYEAR=2004
DGENRE=Jazz
TTITLE0=Introduction
TTITLE1=A Night in Tunisia
TTITLE2=Autumn Leaves
TTITLE3=Dizzy's Business
TTITLE4=Anitra's Dance
TTITLE5=Begin the Beguine
TTITLE6=Left Hand Corner
TTITLE7=I Love You Too Much
TTITLE8=Yesterdays
TTITLE9=Wonder Why
TTITLE10=Cool Breeze
TTITLE11=Umbrella Man
TTITLE12=Birks' Works
TTITLE13=Whisper Not
TTITLE14=That's All
TTITLE15=I Remember Clifford
EXTD=YEAR: 2004
EXTT0=
EXTT1=
EXTT2=
EXTT3=
EXTT4=
EXTT5=
EXTT6=
EXTT7=
EXTT8=
EXTT9=
EXTT10=
EXTT11=
EXTT12=
EXTT13=
EXTT14=
EXTT15=
PLAYORDER=
